PathFileType	4	(X/Y/Z)	s02c0202.trc
DataRate	CameraRate	NumFrames	NumMarkers	Units	OrigDataRate	OrigDataStartFrame	OrigNumFrames
200	200	5	50	mm	200	1750	2000
Frame#	Time	racr			lacr			c7			jug			rlel			rdr			llel			ldr			s2			lic			ric			lasi			rasi			rpsi			lpsi			rgt			lgt			rth1			rth2			rth3			rth4			rlfc			rmfc			rsh1			rsh2			rsh3			rsh4			rlmal			rmmal			rtoe			rmt5			rmt1			lth1			lth2			lth4			lth3			llfc			lmfc			lsh1			lsh2			lsh3			lsh4			llmal			lmmal			lcal			ltoe			lmt5			SBIKE			LBIKE			RBIKE			
		X1	Y1	Z1	X2	Y2	Z2	X3	Y3	Z3	X4	Y4	Z4	X5	Y5	Z5	X6	Y6	Z6	X7	Y7	Z7	X8	Y8	Z8	X9	Y9	Z9	X10	Y10	Z10	X11	Y11	Z11	X12	Y12	Z12	X13	Y13	Z13	X14	Y14	Z14	X15	Y15	Z15	X16	Y16	Z16	X17	Y17	Z17	X18	Y18	Z18	X19	Y19	Z19	X20	Y20	Z20	X21	Y21	Z21	X22	Y22	Z22	X23	Y23	Z23	X24	Y24	Z24	X25	Y25	Z25	X26	Y26	Z26	X27	Y27	Z27	X28	Y28	Z28	X29	Y29	Z29	X30	Y30	Z30	X31	Y31	Z31	X32	Y32	Z32	X33	Y33	Z33	X34	Y34	Z34	X35	Y35	Z35	X36	Y36	Z36	X37	Y37	Z37	X38	Y38	Z38	X39	Y39	Z39	X40	Y40	Z40	X41	Y41	Z41	X42	Y42	Z42	X43	Y43	Z43	X44	Y44	Z44	X45	Y45	Z45	X46	Y46	Z46	X47	Y47	Z47	X48	Y48	Z48	X49	Y49	Z49	X50	Y50	Z50	
1750	8.7500	537.142712	1215.941655	-165.001666	570.826914	1213.740659	-471.862649	536.443253	1257.192065	-318.282225	486.903675	1124.321437	-317.506727	553.149477	998.136204	-26.054311	687.967421	882.657424	-126.768967	532.554309	995.759533	-648.413738	691.327043	882.534229	-547.894914	9.438989	1123.246159	-355.506060	128.152788	1080.491279	-504.407701	128.274629	1133.078256	-204.942990	173.240004	1051.315395	-474.687080	176.925692	1108.363507	-233.960679	20.975849	1158.611499	-316.775953	36.652037	1157.646221	-401.987786	113.450976	1077.252218	-157.221583	83.750250	998.340434	-508.170010	203.589011	1061.569880	-156.859961	291.125516	1057.824869	-164.183177	365.909362	1024.061402	-138.110850	299.281171	1079.732575	-194.371904	493.681473	949.178020	-166.695643	487.419690	920.055661	-280.635974	470.467785	842.830464	-147.375164	445.456086	757.698039	-160.614916	385.539534	696.126889	-153.137147	458.824909	750.939373	-197.655035	313.343483	591.827537	-152.523413	322.984106	607.145091	-233.044080	495.305497	469.861936	-197.533024	387.967128	489.668201	-134.676601	415.133189	493.301487	-242.499260	178.350439	894.036710	-532.537730	240.739646	832.909107	-536.140770	271.121266	850.954465	-525.015450	263.076652	746.738766	-532.824803	314.085733	662.051057	-508.887054	326.267716	634.876733	-406.699893	278.471027	565.686236	-525.599806	268.428076	481.409173	-508.137815	213.484838	409.558077	-503.630396	290.834869	477.305588	-474.009137	166.716465	318.270054	-485.529788	183.834803	311.242440	-409.124489	92.034872	308.777869	-443.056711	319.014580	130.503761	-442.501050	219.864991	172.210341	-505.353073	-165.126748	856.602213	-316.795309	32.631288	81.479273	-515.345924	32.818888	81.836078	-115.414166	
1751	8.7550	535.801573	1215.623118	-163.278766	571.799809	1212.125356	-470.017500	536.329868	1256.513806	-316.606757	486.224752	1123.850477	-315.878209	552.727786	997.558929	-25.338712	687.821889	882.657195	-126.532803	533.208354	996.008313	-648.950730	691.396538	882.477536	-548.023691	9.110721	1124.192395	-356.400369	128.404980	1081.385332	-504.826450	128.072267	1133.343127	-205.698343	173.325378	1052.121792	-474.933943	177.103562	1108.688387	-234.362930	20.918878	1160.008090	-317.715800	36.612560	1158.532383	-402.809569	113.325020	1077.457310	-158.430127	84.110163	998.969173	-509.236419	203.568568	1059.797017	-157.271017	291.330033	1054.600100	-163.804266	365.026571	1018.974556	-137.591577	300.128419	1076.190573	-194.200012	493.162235	942.659866	-166.408161	485.831367	913.154208	-279.410049	469.632013	833.892208	-146.618233	445.151568	749.185354	-159.731035	386.117052	686.604104	-152.676112	458.731818	742.971325	-196.997540	315.643715	581.820761	-152.221057	324.397967	597.401497	-232.902326	502.878731	469.285493	-197.254821	395.244503	482.882968	-134.279999	421.629936	489.085796	-241.902802	180.292612	895.636753	-532.629679	243.494553	835.370795	-536.021651	273.596834	853.770909	-524.943744	267.055717	749.464329	-532.839535	318.314069	665.016574	-508.819004	330.107116	637.861733	-406.346561	280.817768	569.178949	-525.342978	267.988461	485.292203	-507.316332	211.157325	415.131954	-503.421083	290.217109	480.553526	-473.162034	161.222804	325.271804	-485.294139	178.188824	317.693936	-408.752214	86.305087	316.963406	-442.668808	309.698243	134.628410	-442.531864	211.246215	177.929151	-505.157179	-165.040490	856.650769	-316.575877	32.643654	81.515453	-515.341079	32.468441	82.059180	-115.573507	
1752	8.7600	534.711237	1215.367360	-161.885610	572.669654	1210.545571	-468.407546	536.289379	1255.885849	-315.189643	485.626535	1123.429903	-314.462547	552.284317	997.061745	-24.615598	687.669027	882.665842	-126.269362	533.770632	996.149260	-649.455277	691.430509	882.346394	-548.144831	8.984090	1124.922526	-357.311139	128.801480	1082.105462	-505.316546	127.776607	1133.175451	-206.483616	173.573989	1052.761113	-475.275795	177.278600	1108.664634	-234.592369	20.897927	1161.192334	-318.625446	36.849258	1159.420254	-403.816675	113.143070	1077.050672	-159.741154	84.525797	999.595341	-510.143116	203.630714	1057.451950	-157.502984	291.194756	1050.011257	-163.912960	364.047872	1013.328611	-136.752935	300.774531	1072.036523	-193.483671	488.183713	933.199999	-164.324402	483.983222	905.315334	-277.984626	467.904185	824.909764	-146.009294	444.484980	739.726088	-158.969353	386.347775	676.166405	-152.177704	458.049388	733.892585	-196.356055	317.503717	570.979673	-152.334539	325.729398	586.804348	-233.104140	509.721695	468.158921	-196.811980	401.611018	476.151662	-133.765830	427.760234	484.072127	-241.470397	182.557761	897.260275	-532.593977	246.653219	837.931414	-535.662487	276.411867	856.779482	-524.656894	271.483225	752.447414	-532.766277	323.142266	668.068315	-508.771358	334.248858	641.153095	-405.879396	283.731204	572.864922	-525.096154	268.304300	489.628326	-507.146323	209.320263	421.117043	-503.225404	290.124932	484.325348	-472.652522	156.118271	332.803976	-485.089790	172.893537	324.593460	-408.426297	81.086011	325.530559	-442.114780	300.740934	139.261036	-442.536818	202.949956	184.238475	-505.004594	-164.953625	856.694290	-316.304027	32.666107	81.530863	-515.338191	32.830209	81.826892	-115.411045	
1753	8.7650	533.614393	1215.315327	-160.505919	573.398482	1209.093381	-466.991829	536.285272	1255.376322	-314.054345	484.874516	1123.205017	-313.206496	551.914025	996.717276	-24.126526	687.525498	882.704215	-126.048964	534.277820	996.073433	-649.975942	691.658361	881.998626	-548.119137	8.970423	1125.331971	-358.210380	129.053328	1082.758852	-506.075044	127.600901	1132.593526	-207.065468	173.848879	1053.498775	-475.980421	177.491397	1108.256040	-234.693700	23.682735	1161.079903	-320.539662	36.836892	1159.964064	-404.682218	113.187431	1075.751566	-161.386643	85.084900	999.945957	-511.214211	203.795794	1054.620401	-157.478907	291.300983	1045.602392	-163.078563	363.190189	1007.346906	-136.007536	301.451375	1067.402100	-192.597137	485.852635	923.840026	-162.866211	481.884163	896.852416	-276.493445	465.699332	814.416945	-145.017448	443.463095	729.112829	-158.479364	386.244530	664.829640	-151.946553	456.923411	723.602396	-195.784701	319.003406	559.257034	-153.339087	326.842336	575.358640	-233.465146	516.192629	466.181294	-196.240525	407.496741	468.849582	-133.529955	433.430561	478.286071	-241.271227	185.141927	898.872739	-532.534565	250.078776	840.551167	-535.143735	279.520701	859.811677	-524.048948	276.297424	755.548952	-532.577418	328.330768	671.431950	-508.636746	338.570742	644.532981	-405.335745	287.041118	576.887589	-524.828388	269.035571	494.160763	-506.714535	207.884753	427.531350	-503.052532	290.368158	488.272632	-471.956143	151.467835	340.740791	-484.973835	168.036983	332.030257	-408.154700	76.072989	334.565082	-441.876363	292.137536	144.446176	-442.497751	195.165236	191.090156	-504.847559	-164.925483	856.656859	-316.324136	32.652214	81.546319	-515.328274	32.834535	81.814027	-115.384967	
1754	8.7700	532.799767	1215.242251	-159.414993	573.930271	1207.733698	-465.874720	536.388813	1254.914454	-313.111295	484.039960	1123.107876	-312.154316	551.532607	996.489764	-23.654592	687.393715	882.767581	-125.825573	534.800020	996.006035	-650.489863	691.589934	881.517421	-547.897213	9.065998	1125.370185	-359.086388	129.429610	1083.236513	-506.852875	127.252060	1131.739347	-207.663468	174.251144	1054.032928	-476.736237	177.723858	1107.555593	-234.657387	23.803541	1161.193765	-321.493335	36.940221	1160.258907	-405.492801	112.999946	1074.090572	-162.360362	85.751266	1000.175138	-512.338355	204.016793	1051.335674	-157.225594	291.312226	1040.353581	-162.452035	361.996297	999.874832	-134.467003	302.178511	1062.178507	-191.395388	484.201346	913.760595	-161.504303	479.633834	887.689754	-274.833131	463.367022	803.188444	-143.200989	442.215264	717.660392	-158.082626	386.055677	652.392863	-151.891863	455.821165	712.761506	-195.279418	320.775308	546.964257	-153.986402	328.204740	563.282990	-234.264341	521.753196	463.447566	-195.866433	412.951243	460.956613	-133.381174	438.734565	471.842433	-241.216121	187.877285	900.569867	-532.381896	253.836474	843.300765	-534.400370	282.823440	863.030102	-523.365662	281.400002	758.752969	-532.221712	333.922287	674.947211	-508.383432	343.105518	648.130726	-404.758800	290.644939	580.922527	-524.554078	269.973316	498.839757	-506.309335	206.884281	434.265801	-502.856539	290.923950	492.560145	-471.378307	147.203995	349.181297	-484.941479	163.685681	339.852503	-408.005446	71.471409	344.303745	-441.998241	283.934678	150.019118	-442.546691	187.784369	198.288526	-504.825338	-164.862548	856.082794	-318.265586	32.678292	81.513188	-515.385795	32.467688	82.056289	-115.555679	
